# xmcd
#
# Track frame offsets: 
#        150
#        25546
#        49759
#        76682
#        103405
#        127747
#        160067
#        185338
#        208993
#        236048
#        248805
#
# Disc length: 3444 seconds
#
# Revision: 0
# Processed by: cddbd v1.5.2PL0 Copyright (c) Steve Scherf et al.
# Submitted via: ExactAudioCopy v0.95b1
#
DISCID=870d720b
DTITLE=Jeff Healey  - Songs From The Road 
DYEAR=2009
DGENRE=Blues
TTITLE0=I Think I Love You Too Much
TTITLE1=I'm Ready
TTITLE2=Stop Breaking Down
TTITLE3=Angel Eyes
TTITLE4=Come Together
TTITLE5=Hoochie Coochie Man
TTITLE6=White Room
TTITLE7=While My Guitar Gently Weeps
TTITLE8=Whipping Post
TTITLE9=Teach Your Children
TTITLE10=Santa, Bring My Baby Back (To Me)
EXTD=
EXTT0=
EXTT1=
EXTT2=
EXTT3=
EXTT4=
EXTT5=
EXTT6=
EXTT7=
EXTT8=
EXTT9=
EXTT10=
PLAYORDER=
